<svg width="17" height="17" viewBox="0 0 17 17" fill="none" xmlns="http://www.w3.org/2000/svg">
<path d="M4.8996 17C7.1344 17 9.0129 15.3482 9.9522 13.7287C9.9522 15.7692 11.2801 16.9352 13.4178 16.9352C15.0048 16.9352 16.0413 16.3522 16.8834 15.8664V14.5709C15.102 14.4089 14.8105 14.2794 14.8105 13.3077V7.8664C14.8105 2.19838 12.4461 0.514172 8.106 0.514172C5.2234 0.514172 1.3044 1.71255 1.3044 4.6599C1.3044 6.1174 2.2437 7.1538 3.6364 7.1538C4.8996 7.1538 5.8388 6.2794 5.8388 5.1458C5.8388 4.1417 5.3206 3.2024 4.0574 2.94332V2.87854C4.5109 2.74899 5.2882 2.61943 6.357 2.61943C8.7538 2.61943 9.9522 3.17 9.9522 5.4696V7.8664L7.1991 8.3522C2.7943 9.0972 0.818604 10.4575 0.818604 13.2753C0.818604 15.5425 2.5676 17 4.8996 17ZM7.2315 14.1498C6.2599 14.1498 5.6769 13.6964 5.6769 12.4332C5.6769 11.0405 6.1951 10.3603 7.8793 9.7449L9.9522 9V12.6275C9.2072 13.5992 8.3004 14.1498 7.2315 14.1498Z" fill="#100A30"/>
</svg>
