<svg width="12" height="11" viewBox="0 0 12 11" fill="none" xmlns="http://www.w3.org/2000/svg">
<path d="M3.50945 10.9998C4.99129 10.9998 6.23681 9.89863 6.85961 8.81896C6.85961 10.1793 7.74007 10.9566 9.15745 10.9566C10.2097 10.9566 10.8969 10.568 11.4553 10.2441V9.38043C10.2742 9.27243 10.0809 9.1861 10.0809 8.5383V4.91076C10.0809 1.13208 8.51318 0.00927734 5.6355 0.00927734C3.72421 0.00927734 1.12574 0.808197 1.12574 2.7731C1.12574 3.74476 1.74854 4.4357 2.67196 4.4357C3.50945 4.4357 4.13225 3.85276 4.13225 3.09703C4.13225 2.42763 3.78866 1.80143 2.9511 1.62871V1.58552C3.25179 1.49916 3.76717 1.41278 4.47584 1.41278C6.06502 1.41278 6.85961 1.77983 6.85961 3.3129V4.91076L5.03418 5.23463C2.11361 5.7313 0.803635 6.63816 0.803635 8.5167C0.803635 10.0282 1.9633 10.9998 3.50945 10.9998ZM5.05567 9.0997C4.41145 9.0997 4.0249 8.79743 4.0249 7.9553C4.0249 7.02683 4.36849 6.57336 5.48519 6.1631L6.85961 5.6665V8.08483C6.36564 8.73263 5.76439 9.0997 5.05567 9.0997Z" fill="white"/>
</svg>
