<svg width="14" height="16" viewBox="0 0 14 16" fill="none" xmlns="http://www.w3.org/2000/svg">
<path d="M0 15.8273H7.53774V15.0068L5.66943 14.4454V9.75982L6.31368 9.93255C7.12971 10.1701 7.9243 10.278 8.67592 10.278C11.5536 10.278 13.7011 8.57222 13.7011 5.61405C13.7011 2.6343 11.3174 0.97168 7.34447 0.97168H0V1.79219L1.76096 2.35359V14.4454L0 15.0068V15.8273ZM5.66943 2.33201H7.02236C9.14841 2.33201 9.70676 2.89341 9.70676 5.61405C9.70676 8.05402 9.36317 8.83135 7.51626 8.83135C7.3015 8.83135 7.04384 8.83135 6.78612 8.80975L5.66943 8.72335V2.33201Z" fill="white"/>
</svg>
